<svg width="295" height="66" viewBox="0 0 295 66" fill="none" xmlns="http://www.w3.org/2000/svg">
<path d="M0.525391 28.6454H5.96139V35.5364H6.01639C6.55162 34.8872 7.23513 34.3762 8.00926 34.0466C8.78339 33.717 9.62544 33.5783 10.4644 33.6424C11.1127 33.5988 11.7628 33.6934 12.3718 33.9198C12.9809 34.1463 13.5348 34.4996 13.9971 34.9562C14.4594 35.4128 14.8194 35.9623 15.0534 36.5685C15.2874 37.1747 15.39 37.8236 15.3544 38.4724V48.2474H9.91839V40.7814C9.91839 39.1334 9.72639 37.9814 8.13339 37.9814C7.20039 37.9814 5.96439 38.4484 5.96439 40.7274V48.2514H0.525391V28.6454Z" fill="#058D96"/>
<path d="M17.7334 28.6454H23.1704V35.5364H23.2254C23.7607 34.8872 24.4442 34.3763 25.2183 34.0467C25.9924 33.7171 26.8345 33.5784 27.6734 33.6424C28.3216 33.5991 28.9715 33.6939 29.5804 33.9205C30.1892 34.1471 30.7429 34.5004 31.2051 34.9569C31.6672 35.4135 32.0272 35.9629 32.2611 36.5689C32.4951 37.175 32.5978 37.8237 32.5624 38.4724V48.2474H27.1244V40.7814C27.1244 39.1334 26.9334 37.9814 25.3394 37.9814C24.4064 37.9814 23.1704 38.4484 23.1704 40.7274V48.2514H17.7334V28.6454Z" fill="#00A450"/>
<path d="M34.9274 33.9994H40.1754V35.8934H40.2304C40.7395 35.1394 41.4393 34.5337 42.2585 34.1381C43.0778 33.7426 43.9873 33.5711 44.8944 33.6414C45.6783 33.6199 46.4528 33.8165 47.1315 34.2094C47.8103 34.6022 48.3666 35.1759 48.7384 35.8664C49.2953 35.116 50.0328 34.5185 50.8825 34.1295C51.7322 33.7405 52.6664 33.5726 53.5984 33.6414C54.2502 33.583 54.9069 33.6674 55.5227 33.8888C56.1385 34.1103 56.6986 34.4634 57.164 34.9235C57.6294 35.3836 57.9888 35.9397 58.2171 36.553C58.4455 37.1662 58.5374 37.822 58.4864 38.4744V48.2494H53.0494V40.5354C53.0494 39.1894 52.9134 37.9814 51.2654 37.9814C49.8924 37.9814 49.4254 39.0524 49.4254 40.5354V48.2504H43.9884V40.5354C43.9884 39.1894 43.8504 37.9814 42.2034 37.9814C40.8304 37.9814 40.3634 39.0524 40.3634 40.5354V48.2504H34.9274V33.9994Z" fill="#52B448"/>
<path d="M66.2374 34.0004H60.8014V48.2514H66.2374V34.0004Z" fill="#8AC341"/>
<path d="M66.3794 32.2534C66.5016 31.8428 66.534 31.4107 66.4744 30.9864C66.4147 30.5622 66.2645 30.1558 66.0338 29.7948C65.8031 29.4338 65.4975 29.1266 65.1375 28.8943C64.7776 28.6619 64.3719 28.5097 63.9479 28.4481C63.524 28.3864 63.0917 28.4168 62.6805 28.537C62.2694 28.6573 61.8889 28.8646 61.5649 29.145C61.241 29.4254 60.9812 29.7722 60.8032 30.1619C60.6253 30.5516 60.5332 30.975 60.5334 31.4034C60.5335 31.6914 60.5759 31.9778 60.6594 32.2534H66.3794Z" fill="#8AC341"/>
<path d="M76.7694 25.5864V65.2334" stroke="white" stroke-width="0.5" stroke-miterlimit="10"/>
<path d="M259.715 32.2084C259.841 31.7951 259.875 31.3596 259.817 30.9317C259.758 30.5038 259.608 30.0936 259.376 29.7292C259.145 29.3647 258.837 29.0545 258.475 28.8198C258.112 28.5852 257.703 28.4315 257.276 28.3694C256.848 28.3073 256.413 28.3382 255.998 28.46C255.584 28.5818 255.201 28.7917 254.875 29.0752C254.549 29.3587 254.288 29.7091 254.111 30.1027C253.933 30.4962 253.842 30.9235 253.844 31.3554C253.844 31.6443 253.887 31.9317 253.97 32.2084H259.715Z" fill="white"/>
<path d="M114.849 32.2604C114.933 31.9834 114.975 31.6956 114.974 31.4064C114.94 30.6347 114.609 29.9061 114.051 29.3723C113.492 28.8385 112.75 28.5405 111.977 28.5405C111.205 28.5405 110.462 28.8385 109.904 29.3723C109.346 29.9061 109.015 30.6347 108.98 31.4064C108.98 31.6957 109.023 31.9834 109.106 32.2604H114.849Z" fill="white"/>
<path d="M88.4734 48.1924V28.4854H97.8894C102.322 28.4854 105.853 29.5264 105.853 33.4394C105.823 34.3149 105.571 35.1685 105.121 35.9204C104.671 36.6723 104.038 37.298 103.281 37.7394C104.267 37.9967 105.132 38.5874 105.731 39.4108C106.33 40.2343 106.625 41.2398 106.566 42.2564C106.566 46.6624 103.199 48.1944 98.0814 48.1944L88.4734 48.1924ZM94.9324 33.0844V36.3644H97.6144C98.9014 36.3644 99.8314 35.7884 99.8314 34.6394C99.8314 33.1074 98.5724 33.0804 97.2044 33.0804L94.9324 33.0844ZM94.9324 39.9534V43.5934H97.7524C99.3394 43.5934 100.544 43.2644 100.544 41.7874C100.544 40.0624 99.0444 39.9534 96.9864 39.9534H94.9324Z" fill="white"/>
<path d="M109.222 48.1914V33.8524H114.915V48.1914H109.222Z" fill="white"/>
<path d="M125.454 33.4395C130.517 33.4395 133.637 36.4225 133.637 40.8845C133.637 46.1395 130.079 48.6015 125.481 48.6015C120.883 48.6015 117.323 46.0845 117.323 41.1845C117.324 36.2045 120.607 33.4395 125.454 33.4395ZM123.018 40.8845C123.018 43.5935 124.03 44.7695 125.481 44.7695C127.013 44.7695 127.943 43.5935 127.943 40.8845C127.943 38.7775 127.013 37.1845 125.534 37.2715C123.592 37.2715 123.018 39.2695 123.018 40.8845Z" fill="white"/>
<path d="M136.435 48.1924V28.4854H142.894V48.1924H136.435Z" fill="white"/>
<path d="M146.039 33.8494H151.239V36.0944C151.75 35.2723 152.465 34.5961 153.313 34.1309C154.162 33.6658 155.117 33.4276 156.084 33.4394C159.861 33.4394 161.64 35.6554 161.64 39.5974V48.1914H155.947V40.6104C155.947 39.1864 155.564 37.9294 153.947 37.9294C152.195 37.9294 151.729 39.0494 151.729 40.8854V48.1924H146.037L146.039 33.8494Z" fill="white"/>
<path d="M173.493 48.1914C166.02 48.6014 165.116 48.0814 165.116 43.1284V37.1344H163.091V33.8494H165.198V29.3884H170.809V33.8494H173.546V37.1344H170.809V42.3344C170.809 43.6484 171 44.1134 172.588 44.1134H173.488L173.493 48.1914Z" fill="white"/>
<path d="M181.133 42.3064C181.126 42.6788 181.193 43.0489 181.332 43.3945C181.471 43.7401 181.678 44.054 181.942 44.3174C182.205 44.5808 182.519 44.7883 182.864 44.9273C183.21 45.0663 183.58 45.1341 183.952 45.1264C184.392 45.1463 184.828 45.0379 185.208 44.8143C185.587 44.5908 185.893 44.2618 186.088 43.8674H191.533C190.548 47.4254 186.933 48.6024 183.595 48.6024C178.995 48.6024 175.439 45.9754 175.439 41.1584C175.439 36.4514 178.969 33.4404 183.568 33.4404C188.877 33.4404 192.08 37.1074 191.998 42.3074L181.133 42.3064ZM186.307 39.4064C186.285 38.7484 186.012 38.1239 185.543 37.6609C185.075 37.198 184.448 36.9316 183.789 36.9164C183.445 36.8728 183.094 36.9059 182.764 37.0131C182.433 37.1204 182.13 37.2994 181.876 37.5371C181.623 37.7749 181.424 38.0657 181.296 38.3889C181.168 38.712 181.112 39.0594 181.133 39.4064H186.307Z" fill="white"/>
<path d="M193.994 33.8494H199.168V36.7494H199.223C200.016 34.5044 201.413 33.4374 203.629 33.4374C203.877 33.4512 204.124 33.4786 204.369 33.5194V39.2124C203.981 39.1297 203.588 39.0743 203.192 39.0464C200.865 39.0464 199.692 40.1464 199.692 43.2344V48.1884H193.998L193.994 33.8494Z" fill="white"/>
<path d="M215.919 48.1914L215.645 46.6594C214.928 47.3363 214.079 47.8581 213.152 48.1922C212.224 48.5263 211.237 48.6656 210.253 48.6014C207.543 48.6014 205.135 47.2614 205.135 44.2774C205.135 37.7634 215.344 40.7184 215.344 38.0364C215.344 36.9964 214.084 36.8594 213.484 36.8594C212.689 36.8594 211.622 37.0234 211.484 38.2594H206.01C206.01 35.2214 208.171 33.4424 213.838 33.4424C220.625 33.4424 221.038 35.9604 221.038 39.3814V46.0874C220.98 46.4343 221.02 46.7909 221.156 47.1155C221.292 47.4402 221.517 47.7196 221.805 47.9214V48.1954L215.919 48.1914ZM215.344 41.8414C213.484 42.7414 211.019 42.3054 211.019 44.1674C211.019 44.8794 211.704 45.3674 212.826 45.3674C214.824 45.3734 215.48 43.8124 215.344 41.8424V41.8414Z" fill="white"/>
<path d="M233.574 39.3244C233.572 38.7733 233.357 38.2443 232.974 37.8474C232.784 37.6517 232.553 37.4992 232.299 37.4C232.044 37.3008 231.771 37.2573 231.498 37.2724C229.361 37.2724 229.006 39.4894 229.006 41.1854C229.006 43.3474 229.828 44.7704 231.498 44.7704C231.785 44.7783 232.07 44.729 232.337 44.6256C232.604 44.5222 232.847 44.3666 233.054 44.1679C233.26 43.9693 233.425 43.7316 233.538 43.4686C233.651 43.2057 233.711 42.9228 233.714 42.6364H239.461C239.396 43.5608 239.121 44.4581 238.657 45.2599C238.192 46.0616 237.55 46.7466 236.78 47.2624C235.184 48.2059 233.351 48.671 231.498 48.6024C226.871 48.6024 223.313 46.0024 223.313 41.1584C223.313 36.2584 226.761 33.4404 231.498 33.4404C235.329 33.4404 238.941 35.0824 239.351 39.3254L233.574 39.3244Z" fill="white"/>
<path d="M251.201 48.1914C243.729 48.6014 242.827 48.0814 242.827 43.1284V37.1344H240.8V33.8494H242.908V29.3884H248.52V33.8494H251.257V37.1344H248.52V42.3344C248.52 43.6484 248.711 44.1134 250.3 44.1134H251.2L251.201 48.1914Z" fill="white"/>
<path d="M253.995 48.1914V33.8524H259.687V48.1914H253.995Z" fill="white"/>
<path d="M261.413 33.8524H267.106L269.623 42.9124L272.114 33.8524H277.588L272.743 48.1944H266.392L261.413 33.8524Z" fill="white"/>
<path d="M284.131 42.3064C284.124 42.6789 284.191 43.0491 284.33 43.3947C284.469 43.7404 284.677 44.0543 284.94 44.3178C285.203 44.5812 285.517 44.7886 285.863 44.9276C286.209 45.0666 286.579 45.1342 286.951 45.1264C287.391 45.1461 287.827 45.0376 288.206 44.814C288.585 44.5905 288.891 44.2616 289.086 43.8674H294.533C293.548 47.4254 289.933 48.6024 286.596 48.6024C281.996 48.6024 278.439 45.9754 278.439 41.1584C278.439 36.4514 281.969 33.4404 286.568 33.4404C291.878 33.4404 295.08 37.1074 294.998 42.3074L284.131 42.3064ZM289.304 39.4064C289.282 38.7485 289.009 38.124 288.541 37.661C288.073 37.198 287.445 36.9316 286.787 36.9164C286.442 36.8728 286.092 36.9059 285.761 37.0131C285.431 37.1204 285.128 37.2994 284.874 37.5371C284.62 37.7749 284.422 38.0657 284.294 38.3889C284.166 38.712 284.11 39.0594 284.131 39.4064H289.304Z" fill="white"/>
<path d="M253.646 0.106408C253.187 -0.112592 253.07 0.0244072 253.07 0.353407C253.07 0.682407 253.316 13.3534 253.316 13.3534C253.316 13.3534 253.321 14.1224 253.811 13.6004L256.28 10.9674C256.28 10.9674 256.69 10.3904 257.02 10.8844C257.35 11.3784 261.22 16.5634 261.22 16.5634C261 16.8957 260.689 17.1573 260.324 17.3169C259.958 17.4766 259.555 17.5274 259.161 17.4634C259.249 17.0427 259.307 16.6163 259.334 16.1874C259.334 15.7644 258.989 15.0694 258.275 15.2344C257.561 15.3994 257.727 15.9434 258.115 16.5054C258.503 17.0674 258.275 17.2474 258.062 17.3004C257.849 17.3534 257.606 16.9634 257.519 16.6004C257.432 16.2374 257.135 15.1474 256.442 15.7234C255.749 16.2994 256.593 16.6234 256.817 17.1094C257.041 17.5954 257.217 17.9594 256.79 17.9094C256.363 17.8594 255.906 17.0524 255.483 16.9994C255.06 16.9464 253.883 17.6334 256.261 18.4384C256.532 18.5304 256.93 18.8384 256.507 19.0464C256.084 19.2544 255.976 18.9404 255.607 19.0464C255.238 19.1524 255.023 19.4704 255.236 19.7884C255.449 20.1064 256.247 20.0944 256.67 19.8884C257.023 19.7633 257.338 19.5506 257.586 19.2704C257.769 18.9964 257.85 18.8994 258.275 19.0584C258.908 19.4128 259.616 19.6126 260.34 19.6414C261.221 19.5699 262.039 19.1585 262.621 18.4944C262.887 18.1114 263.149 17.7864 263.467 18.2104C263.785 18.6344 267.492 22.1844 275.811 20.9104C275.966 20.8792 276.125 20.8811 276.278 20.9162C276.431 20.9514 276.575 21.0188 276.701 21.114C276.826 21.2092 276.929 21.33 277.004 21.4684C277.079 21.6068 277.123 21.7595 277.134 21.9164C277.214 22.6509 277.441 23.3617 277.802 24.0064C278.163 24.6511 278.65 25.2163 279.234 25.6684C279.81 26.0884 279.743 26.3904 279.321 27.0794C279.165 27.4319 279.124 27.8248 279.204 28.2019C279.285 28.5791 279.482 28.9212 279.768 29.1794C280.357 29.3094 280.341 28.3264 280.287 28.0614C280.233 27.7964 280.093 27.0414 280.528 27.0054C280.963 26.9694 280.952 27.5884 280.952 28.1184C280.952 28.6484 280.846 29.1254 281.323 29.3374C281.8 29.5494 282.277 29.5764 282.409 28.8984C282.541 28.2204 282.243 28.1194 282.027 27.8074C281.811 27.4954 281.54 27.1604 281.963 26.8734C282.386 26.5864 282.452 27.3384 283.071 27.7474C283.69 28.1564 284.217 27.4374 283.76 26.8474C283.303 26.2574 282.594 26.1584 282.594 25.8404C282.594 25.5224 282.813 25.6244 283.446 25.5544C283.83 25.5104 284.286 25.3954 284.134 24.7914C284.02 24.1434 283.512 24.3064 282.202 24.8664C281.026 25.3714 280.634 23.8284 280.634 23.3504C280.634 22.8724 280.579 22.3954 280.574 21.2604C280.569 20.1254 280.784 20.1094 281.483 20.1204C284.371 20.1634 286.835 20.4154 292.753 27.1634C293.174 27.6444 293.338 27.6534 293.191 26.6364C293.006 25.3764 290.885 17.5524 284.344 15.2994C284.044 15.1994 283.39 15.1404 284.026 13.4994C284.662 11.8584 283.177 9.42041 283.126 9.26141C283.075 9.10241 283.02 8.89041 283.551 8.62541C283.835 8.55005 284.076 8.36559 284.224 8.1124C284.371 7.8592 284.413 7.5579 284.338 7.27441C284.328 7.1389 284.279 7.00925 284.197 6.90091C284.115 6.79256 284.003 6.71008 283.876 6.6633C283.748 6.61651 283.61 6.60739 283.477 6.63702C283.344 6.66665 283.223 6.73377 283.127 6.83041C282.727 7.16341 282.945 8.03041 282.596 7.98941C282.247 7.94841 282.41 7.51241 282.481 6.84041C282.552 6.16841 281.842 5.97141 281.359 6.28841C281.168 6.43903 281.042 6.65756 281.007 6.89868C280.973 7.1398 281.032 7.38499 281.173 7.58341C281.384 7.95441 281.838 8.17041 281.485 8.51841C281.132 8.86641 280.701 8.18741 280.585 7.86941C280.373 7.28441 279.817 6.62541 279.051 7.48541C278.44 8.17141 279.346 8.38541 279.951 8.73541C280.556 9.08541 280.531 9.63541 280.107 9.63541C279.683 9.63541 279.174 8.81141 278.831 9.63541C278.787 9.75602 278.774 9.88586 278.794 10.0128C278.814 10.1397 278.865 10.2597 278.944 10.3613C279.022 10.463 279.125 10.5431 279.243 10.5942C279.361 10.6453 279.49 10.6656 279.617 10.6534C280.146 10.5474 280.69 10.2144 281.217 10.3734C281.744 10.5324 281.746 11.0094 281.587 11.3804C281.428 11.7514 280.152 14.1324 280.152 14.1324C280.152 14.1324 280.099 14.3444 279.146 14.3974C278.193 14.4504 273.424 14.8744 270.881 14.0804C268.338 13.2864 268.338 13.1264 268.815 12.5424C269.292 11.9584 269.715 11.2714 270.298 11.4304C270.919 11.6726 271.443 12.1103 271.792 12.6774C272.072 13.1364 272.712 13.3514 272.985 12.9064C273.236 12.4974 272.52 12.1994 272.312 12.0124C272.104 11.8254 272.047 11.5354 272.523 11.5354C272.999 11.5354 273.482 11.8644 273.851 11.8114C273.945 11.8046 274.036 11.7723 274.113 11.718C274.189 11.6637 274.25 11.5894 274.288 11.5031C274.326 11.4169 274.339 11.322 274.327 11.2286C274.315 11.1353 274.277 11.047 274.218 10.9734C273.977 10.5584 273.118 10.6244 272.734 10.5294C272.35 10.4344 272.734 10.0684 273.847 9.94641C274.812 9.84641 274.308 8.04641 273.328 8.89141C272.934 9.23241 272.841 9.36341 272.523 9.46941C272.205 9.57541 271.948 9.26941 272.212 8.95341C272.476 8.63741 273.145 8.44441 273.012 8.07541C272.979 7.98408 272.924 7.90219 272.852 7.83677C272.781 7.77136 272.694 7.72439 272.6 7.69989C272.506 7.6754 272.407 7.67411 272.313 7.69615C272.218 7.71819 272.13 7.76289 272.056 7.82641C271.546 8.20941 271.183 8.35041 271.131 9.03941C271.102 9.40041 270.921 9.67641 270.126 9.62341C269.331 9.57041 268.947 9.44541 268.287 10.1054C267.916 10.4774 267.31 10.9544 267.07 11.1644C266.83 11.3744 266.328 11.3244 265.957 10.8464C265.586 10.3684 262.143 7.34641 262.143 7.34641C262.093 7.29188 262.056 7.22592 262.036 7.15413C262.016 7.08233 262.014 7.00682 262.03 6.93399C262.045 6.86117 262.078 6.79318 262.126 6.73581C262.173 6.67843 262.234 6.63336 262.302 6.60441C262.833 6.28641 265.036 5.34741 265.427 5.17441C266.088 4.88241 266.183 4.72341 265.639 4.53841C264.73 4.23241 254.108 0.324407 253.646 0.106408Z" fill="url(#paint0_linear_10139_1407)"/>
<path d="M253.753 0.725464C253.753 0.725464 260.053 13.6515 268.269 16.3545C270.833 17.1725 273.537 17.461 276.215 17.2025C273.561 17.1598 270.938 16.6208 268.481 15.6135C262.889 13.2415 258.309 5.38846 258.309 5.38846C258.516 5.47928 258.743 5.51246 258.967 5.48446C259.191 5.45647 259.403 5.36834 259.58 5.22946C259.769 5.1168 259.932 4.9665 260.06 4.78791C260.188 4.60933 260.278 4.4063 260.324 4.19146L259.703 3.89146C259.703 3.89146 259.865 4.25046 259.321 4.59146C259.199 4.684 259.057 4.74589 258.906 4.77195C258.755 4.79802 258.601 4.78748 258.455 4.74122C258.309 4.69497 258.176 4.61435 258.068 4.50616C257.959 4.39796 257.879 4.26534 257.832 4.11946C257.773 3.98462 257.743 3.83894 257.743 3.6917C257.744 3.54446 257.775 3.39892 257.834 3.26435C257.894 3.12978 257.981 3.00916 258.09 2.91017C258.199 2.81119 258.328 2.73602 258.467 2.68946C258.467 2.68946 255.445 1.57146 253.753 0.725464Z" fill="white"/>
<path d="M272.613 18.4724C274.792 18.748 276.984 18.9083 279.179 18.9524C281.339 18.7932 283.508 19.1001 285.538 19.8524C290.138 21.6024 293.46 27.5164 292.983 26.6694C292.506 25.8224 291.101 21.9184 287.922 20.0114C284.743 18.1044 283.313 17.9454 279.498 18.0524C275.683 18.1594 272.613 18.4724 272.613 18.4724Z" fill="white"/>
<path d="M254.35 6.2304C254.35 6.2304 255.318 6.1534 255.561 6.8524C255.661 7.1454 255.78 7.7134 254.985 7.7664C254.985 7.7664 253.978 7.7134 254.402 8.0844C254.627 8.24069 254.894 8.32488 255.167 8.32578C255.441 8.32667 255.708 8.24422 255.933 8.0894C256.043 8.01528 256.135 7.91854 256.203 7.80573C256.272 7.69292 256.316 7.56668 256.331 7.43554C256.347 7.30441 256.334 7.17144 256.294 7.04565C256.254 6.91985 256.187 6.80416 256.098 6.7064C255.621 6.0714 254.879 5.2764 254.35 6.2304Z" fill="white"/>
<defs>
<linearGradient id="paint0_linear_10139_1407" x1="253.07" y1="14.7352" x2="293.244" y2="14.7352" gradientUnits="userSpaceOnUse">
<stop stop-color="#058D96"/>
<stop offset="1" stop-color="#8AC341"/>
</linearGradient>
</defs>
</svg>
